<svg width="25" height="25" viewBox="0 0 17 17" fill="none" xmlns="http://www.w3.org/2000/svg">
<path fill-rule="evenodd" clip-rule="evenodd" d="M13.8334 3.83333H3.16675C2.79856 3.83333 2.50008 4.13181 2.50008 4.5V12.5C2.50008 12.8682 2.79856 13.1667 3.16675 13.1667H13.8334C14.2016 13.1667 14.5001 12.8682 14.5001 12.5V4.5C14.5001 4.13181 14.2016 3.83333 13.8334 3.83333ZM3.16675 2.5C2.06218 2.5 1.16675 3.39543 1.16675 4.5V12.5C1.16675 13.6046 2.06218 14.5 3.16675 14.5H13.8334C14.938 14.5 15.8334 13.6046 15.8334 12.5V4.5C15.8334 3.39543 14.938 2.5 13.8334 2.5H3.16675Z" fill="#777E91"/>
<path d="M5.83325 10.8333C5.83325 11.3855 5.38554 11.8333 4.83325 11.8333C4.28097 11.8333 3.83325 11.3855 3.83325 10.8333C3.83325 10.281 4.28097 9.83325 4.83325 9.83325C5.38554 9.83325 5.83325 10.281 5.83325 10.8333Z" fill="#777E91"/>
<path d="M9.16675 10.8333C9.16675 11.3855 8.71903 11.8333 8.16675 11.8333C7.61446 11.8333 7.16675 11.3855 7.16675 10.8333C7.16675 10.281 7.61446 9.83325 8.16675 9.83325C8.71903 9.83325 9.16675 10.281 9.16675 10.8333Z" fill="#777E91"/>
<path d="M1.16675 5.83325H15.8334V7.16658H1.16675V5.83325Z" fill="#777E91"/>
</svg>
